<svg aria-hidden="true" viewBox="0 0 48 48" fill="none"
  xmlns="http://www.w3.org/2000/svg">
  <path fill-rule="evenodd" clip-rule="evenodd" fill="currentColor" d="M38 2.5H25.5V22.5H45.5V6C45.5 4.5 44.5 2.5 41.5 2.5H38ZM45.5 25.5H25.5V45.5H41.5C43.7091 45.5 45.5 43.7091 45.5 41.5V25.5ZM22.5 22.5V2.5H10H6.5C4.29086 2.5 2.5 4.29086 2.5 6.5V22.5H22.5ZM2.5 25.5H22.5V45.5H6.5C4.29086 45.5 2.5 43.7091 2.5 41.5V25.5ZM6.5 0C2.91015 0 0 2.91015 0 6.5V41.5C0 45.0899 2.91015 48 6.5 48H41.5C45.0899 48 48 45.0899 48 41.5V6.5C48 2.91015 45.0899 0 41.5 0H6.5Z" />
  <text x="12" y="18" font-size="16" font-family="Lato, sans-serif" font-weight="bold" text-anchor="middle" fill="currentColor" stroke="none">B</text>
  <text x="36" y="18" font-size="16" font-family="Lato, sans-serif" font-weight="bold" text-anchor="middle" fill="currentColor" stroke="none">1</text>
  <text x="12" y="41" font-size="16" font-family="Lato, sans-serif" font-weight="bold" text-anchor="middle" fill="currentColor" stroke="none">E</text>
  <text x="36" y="41" font-size="16" font-family="Lato, sans-serif" font-weight="bold" text-anchor="middle" fill="currentColor" stroke="none">N</text>
</svg>
